<?xml version="1.0" standalone="no"?>
<!DOCTYPE svg PUBLIC "-//W3C//DTD SVG 20010904//EN"
 "http://www.w3.org/TR/2001/REC-SVG-20010904/DTD/svg10.dtd">
<svg version="1.0" xmlns="http://www.w3.org/2000/svg"
 width="100.000000pt" height="100.000000pt" viewBox="0 0 100.000000 100.000000"
 preserveAspectRatio="xMidYMid meet">
<metadata>
Created by potrace 1.11, written by Peter Selinger 2001-2013
</metadata>
<g transform="translate(0.000000,100.000000) scale(0.100000,-0.100000)"
fill="#000000" stroke="none">
<path d="M385 986 c-58 -14 -145 -54 -145 -66 0 -5 20 -25 45 -45 24 -20 47
-45 50 -56 9 -29 -4 -76 -21 -76 -10 0 -13 6 -8 16 20 49 17 61 -34 111 -49
48 -50 49 -68 29 -10 -11 -19 -27 -20 -36 -4 -26 -24 -40 -24 -17 -1 30 -71
-53 -108 -128 -147 -301 44 -662 377 -710 296 -43 567 187 570 485 2 121 -50
259 -127 340 -23 25 -27 26 -33 10 -5 -16 -7 -15 -18 5 -6 12 -9 22 -5 22 4 0
-3 11 -16 25 l-23 24 -53 -54 c-54 -54 -62 -69 -45 -79 5 -3 11 -15 14 -26 6
-24 -15 -22 -25 2 -4 11 -13 15 -23 12 -26 -10 -65 4 -58 22 3 8 8 13 11 10 7
-7 42 39 42 56 0 8 4 6 11 -5 8 -13 7 -24 -5 -42 -19 -28 -20 -35 -6 -35 5 0
16 15 24 33 7 18 32 48 55 66 22 18 41 36 41 41 0 13 -99 57 -158 69 -67 14
-152 13 -217 -3z m-186 -140 c-9 -8 -10 -7 -5 7 3 10 7 24 7 30 1 7 3 4 6 -7
3 -10 -1 -23 -8 -30z m604 24 c3 -11 1 -20 -4 -20 -5 0 -9 9 -9 20 0 11 2 20
4 20 2 0 6 -9 9 -20z m-422 -49 c11 -13 19 -20 19 -15 0 5 4 2 10 -6 11 -18
-5 -30 -40 -30 -20 0 -22 2 -10 10 10 7 12 12 4 18 -16 10 -27 50 -18 64 6 9
9 8 12 -2 3 -8 13 -26 23 -39z m213 -4 c-24 -18 -64 -31 -64 -20 0 12 33 43
47 43 7 0 13 5 13 10 0 6 6 6 14 -2 11 -10 9 -16 -10 -31z m-156 13 c35 -22
43 -41 13 -35 -29 5 -72 36 -65 46 8 13 15 11 52 -11z m352 -5 c0 -8 -4 -15
-10 -15 -5 0 -7 7 -4 15 4 8 8 15 10 15 2 0 4 -7 4 -15z m-259 -56 c8 -15 8
-19 0 -15 -6 4 -11 2 -11 -3 0 -6 -9 -11 -20 -11 -11 0 -20 5 -20 11 0 5 -5 7
-11 3 -8 -4 -8 0 0 15 7 11 20 21 31 21 11 0 24 -10 31 -21z m-324 -54 c-15
-16 -19 -13 -11 9 3 9 10 13 15 10 5 -3 3 -11 -4 -19z m54 -22 c-10 -17 -10
-16 -11 3 0 23 13 41 18 25 2 -6 -1 -18 -7 -28z m262 28 c33 9 37 9 59 -10 15
-13 15 -16 1 -37 -9 -15 -12 -31 -8 -41 5 -10 7 -21 7 -25 -3 -15 16 -8 22 8
4 10 2 13 -6 8 -6 -4 -3 4 8 18 10 14 21 24 23 22 2 -2 -2 -10 -9 -19 -11 -13
-9 -15 14 -15 16 0 25 4 21 10 -3 6 -1 10 5 10 7 0 9 -8 5 -21 -5 -15 -4 -19
4 -15 6 4 11 3 11 -2 0 -6 8 -9 18 -8 9 0 16 -5 14 -13 -1 -7 7 -22 19 -32 17
-15 19 -19 6 -19 -9 0 -19 -5 -23 -12 -4 -6 -3 -9 2 -6 5 3 18 8 28 12 18 6
18 8 -4 31 -13 14 -19 25 -13 25 6 0 13 9 16 20 3 12 0 20 -8 20 -7 0 -18 7
-25 15 -10 12 -9 15 7 15 10 0 27 -13 36 -30 16 -27 16 -31 3 -36 -19 -7 -11
-24 11 -24 12 0 14 7 9 35 -8 39 -8 39 28 25 20 -7 26 -17 26 -39 0 -16 6 -36
14 -44 12 -12 13 -21 3 -55 -7 -22 -16 -44 -20 -48 -4 -4 -7 -21 -7 -38 0 -24
-3 -27 -10 -16 -5 8 -10 11 -10 7 0 -5 -6 -5 -12 0 -20 12 -50 11 -82 -5 -16
-8 -25 -9 -22 -3 4 6 2 11 -3 11 -6 0 -11 -7 -11 -15 0 -8 -5 -15 -11 -15 -6
0 -9 -7 -5 -15 3 -8 1 -15 -4 -15 -6 0 -10 -6 -10 -14 0 -8 -7 -16 -15 -20 -8
-3 -15 -9 -14 -13 4 -22 -3 -33 -19 -33 -11 0 -33 -7 -50 -16 -32 -15 -102
-11 -102 7 0 5 -11 9 -25 9 -14 0 -26 5 -26 10 -1 6 -2 15 -3 22 0 6 -7 13
-14 16 -9 3 -13 -8 -12 -40 0 -23 -1 -54 -2 -68 -1 -14 2 -33 6 -43 6 -13 5
-16 -7 -11 -8 3 -18 17 -22 31 -4 19 -11 24 -25 20 -11 -3 -20 -1 -20 4 0 5 4
9 8 9 15 0 29 44 21 70 -10 36 -10 60 0 60 5 0 11 -7 13 -15 2 -11 7 -12 18
-4 11 8 12 12 3 15 -7 3 -9 12 -6 20 3 8 0 14 -6 14 -6 0 -11 8 -11 18 0 14
-2 15 -10 2 -5 -8 -10 -10 -10 -4 0 6 -7 11 -15 12 -8 1 -21 3 -28 4 -7 1 -13
9 -13 19 0 10 4 15 8 13 4 -3 8 -1 8 4 0 18 -39 20 -52 3 -11 -14 -11 -14 3
-3 14 11 17 9 17 -13 -1 -13 -4 -23 -8 -20 -4 2 -17 -5 -28 -16 l-22 -20 -1
38 c-1 21 -1 41 0 45 0 4 -7 4 -16 1 -13 -5 -15 -2 -10 16 3 13 1 31 -5 41 -9
14 -8 22 5 35 9 9 17 30 17 46 0 22 7 32 26 41 20 9 27 9 34 -2 6 -10 11 -8
21 9 8 11 22 21 33 21 15 0 16 -3 6 -15 -7 -8 -18 -15 -25 -15 -8 0 -11 -8 -8
-20 6 -24 -4 -26 -28 -4 -15 14 -20 14 -32 3 -14 -15 -12 -39 4 -39 5 0 10 10
10 23 l2 22 4 -22 c4 -24 27 -31 38 -13 3 6 11 10 16 10 6 0 7 -4 4 -10 -3 -5
-1 -10 5 -10 7 0 9 7 6 15 -4 11 3 19 19 25 14 5 25 17 26 27 0 11 3 13 6 6 2
-7 17 -13 31 -13 l27 0 -24 19 c-14 10 -18 18 -9 18 7 0 22 -12 33 -25 10 -14
13 -22 7 -18 -8 5 -10 2 -6 -9 6 -14 8 -13 21 5 12 18 12 24 -1 50 -14 29 -14
31 12 44 16 8 34 11 47 6 11 -4 32 -4 48 1z m227 -23 c0 -5 -4 -8 -10 -8 -5 0
-10 10 -10 23 0 18 2 19 10 7 5 -8 10 -18 10 -22z m-440 -8 c0 -5 -9 -10 -21
-10 -11 0 -17 5 -14 10 3 6 13 10 21 10 8 0 14 -4 14 -10z m410 0 c0 -5 -7
-10 -15 -10 -8 0 -15 5 -15 10 0 6 7 10 15 10 8 0 15 -4 15 -10z m-370 -6 c0
-8 -19 -13 -24 -6 -3 5 1 9 9 9 8 0 15 -2 15 -3z m-210 -199 c0 -19 -17 -28
-26 -14 -4 8 -3 9 4 5 7 -4 12 -2 12 3 0 6 -4 11 -10 11 -5 0 -10 4 -10 10 0
5 7 7 15 4 8 -4 15 -12 15 -19z m736 0 c-14 -14 -16 -14 -16 -2 0 9 6 17 13
20 19 7 21 -1 3 -18z m-744 -77 c-6 -6 -12 -5 -17 3 -5 8 -4 10 3 5 8 -5 12 1
13 16 1 18 2 19 6 4 3 -10 0 -23 -5 -28z m741 -8 c-7 -8 -22 24 -16 34 4 5 10
1 13 -10 4 -10 6 -21 3 -24z m-712 -12 c-9 -24 -31 -37 -31 -18 0 6 4 9 9 6 5
-3 11 3 14 14 3 11 8 20 11 20 3 0 2 -10 -3 -22z m709 -19 c0 -5 -4 -9 -8 -9
-5 0 -9 7 -9 15 0 8 4 12 9 9 4 -3 8 -9 8 -15z m-623 -22 c-7 -20 -57 -29 -57
-11 0 8 9 14 19 14 11 0 23 5 26 11 9 14 19 3 12 -14z m40 1 c-3 -8 -6 -5 -6
6 -1 11 2 17 5 13 3 -3 4 -12 1 -19z m478 12 c3 -5 15 -10 26 -10 10 0 19 -6
19 -13 0 -9 -12 -13 -32 -13 -27 1 -33 5 -33 24 0 23 9 29 20 12z m-81 -57
c-4 -21 -8 -40 -10 -42 -4 -5 25 -61 32 -61 2 0 0 9 -6 19 -5 11 -10 27 -10
37 0 16 1 16 18 1 10 -10 35 -17 56 -17 24 0 35 -4 31 -11 -4 -6 -13 -8 -21
-5 -8 3 -13 0 -11 -6 2 -12 -58 -29 -77 -22 -6 2 -19 -10 -29 -27 -19 -35 -36
-34 -17 1 22 42 -15 84 -39 43 -10 -17 -10 -17 -11 0 0 10 11 22 24 27 18 7
26 18 28 42 2 20 8 32 16 31 6 -2 12 4 12 12 0 8 5 15 10 15 7 0 8 -14 4 -37z
m-461 0 c3 -5 -1 -14 -9 -21 -12 -11 -14 -9 -14 8 0 20 14 27 23 13z m577 -19
c0 -12 -2 -12 -14 -2 -8 7 -12 16 -9 21 7 11 23 -2 23 -19z m-535 -4 c-3 -5
-11 -10 -16 -10 -6 0 -7 5 -4 10 3 6 11 10 16 10 6 0 7 -4 4 -10z m490 0 c3
-5 2 -10 -4 -10 -5 0 -13 5 -16 10 -3 6 -2 10 4 10 5 0 13 -4 16 -10z m-459
-55 c-19 -28 -31 -30 -69 -12 -38 17 -34 27 12 27 23 0 44 6 52 16 20 24 24
-2 5 -31z m111 0 c9 -24 -1 -27 -15 -5 -8 13 -8 20 -2 20 6 0 13 -7 17 -15z
m110 -14 c17 12 17 12 2 -4 -17 -20 -44 -14 -54 11 -5 13 -2 13 14 -2 18 -16
23 -17 38 -5z m-347 -6 c0 -8 -7 -15 -15 -15 -16 0 -20 12 -8 23 11 12 23 8
23 -8z m688 -3 c2 -7 -6 -12 -17 -12 -21 0 -27 11 -14 24 9 9 26 2 31 -12z
m-441 -54 c-3 -7 -5 -2 -5 12 0 14 2 19 5 13 2 -7 2 -19 0 -25z m93 12 c0 -22
15 -27 24 -7 3 6 3 1 0 -13 l-5 -25 20 25 c11 14 21 21 21 15 0 -5 -16 -27
-35 -49 l-35 -38 -35 38 c-40 45 -42 50 -15 50 22 0 27 -12 8 -18 -9 -3 -9 -6
-1 -11 7 -4 17 5 25 23 15 34 28 39 28 10z m77 -12 c-3 -7 -5 -2 -5 12 0 14 2
19 5 13 2 -7 2 -19 0 -25z"/>
<path d="M423 702 c-8 -5 -8 -11 2 -25 11 -15 14 -15 25 -3 19 24 -1 45 -27
28z"/>
<path d="M545 700 c-4 -6 -1 -17 5 -26 11 -12 14 -12 25 3 10 14 10 20 2 25
-16 10 -25 10 -32 -2z"/>
<path d="M462 654 c-15 -16 -16 -38 -2 -29 6 4 17 1 25 -5 12 -10 18 -10 30 0
8 6 19 9 25 5 5 -3 10 -2 10 3 0 26 -69 46 -88 26z"/>
<path d="M450 609 c-11 -8 -12 -12 -2 -16 6 -2 10 -9 6 -14 -3 -5 2 -12 10
-15 9 -3 16 -12 16 -20 0 -23 -16 -16 -29 13 -10 22 -14 24 -22 12 -5 -7 -8
-25 -8 -39 1 -23 2 -23 9 5 6 22 8 24 9 9 2 -33 -20 -84 -36 -84 -8 0 -12 -4
-9 -9 4 -5 0 -11 -6 -14 -10 -4 -11 -7 0 -18 6 -7 12 -20 12 -29 0 -23 47 -83
72 -93 21 -7 21 -8 2 -22 -17 -13 -15 -14 26 -14 41 0 43 1 26 14 -19 14 -19
15 2 22 28 10 72 71 72 98 0 12 5 26 11 32 8 8 5 15 -10 25 -24 17 -42 59 -40
96 1 24 3 23 9 -8 l8 -35 -1 35 c-1 19 -7 35 -14 35 -6 0 -15 3 -19 8 -4 4 -2
7 4 7 17 0 15 17 -3 24 -10 4 -20 -6 -31 -32 l-16 -37 -12 32 c-14 40 -18 44
-36 32z m89 -71 c-12 -21 -13 -21 -17 -4 -2 10 2 22 9 27 20 12 22 4 8 -23z
m-11 -102 c19 -11 14 -26 -8 -26 -11 0 -20 -5 -20 -11 0 -5 4 -7 10 -4 5 3 18
1 27 -4 17 -10 17 -10 0 -11 -10 0 -16 -4 -12 -9 3 -5 -8 -9 -25 -9 -16 1 -30
5 -30 10 0 4 -8 8 -17 8 -12 1 -7 6 12 15 28 13 29 13 6 14 -23 1 -23 2 -8 19
17 19 42 22 65 8z m-100 -26 c-14 -22 -24 -19 -15 5 4 8 11 15 17 15 6 0 6 -7
-2 -20z m159 5 c9 -24 -1 -27 -15 -5 -8 13 -8 20 -2 20 6 0 13 -7 17 -15z"/>
<path d="M787 595 c3 -14 9 -25 13 -25 12 0 6 43 -6 47 -7 2 -10 -6 -7 -22z"/>
<path d="M325 590 c-11 -5 -14 -9 -6 -9 8 -1 11 -7 7 -18 -4 -10 -4 -14 0 -10
4 4 13 2 20 -4 7 -6 24 -12 38 -13 19 -3 25 2 28 24 2 15 -1 27 -6 28 -6 1
-22 3 -36 6 -14 3 -34 1 -45 -4z m49 -15 c3 -9 0 -15 -9 -15 -16 0 -27 14 -18
24 10 10 21 7 27 -9z"/>
<path d="M610 591 c-8 -6 -17 -8 -20 -6 -4 2 -5 -9 -2 -24 3 -23 8 -28 28 -25
14 1 31 7 38 13 7 6 16 8 20 4 4 -4 4 1 0 11 -5 14 -4 17 4 12 7 -4 12 -3 12
2 0 18 -56 27 -80 13z m40 -16 c0 -8 -7 -15 -15 -15 -9 0 -12 6 -9 15 4 8 10
15 15 15 5 0 9 -7 9 -15z"/>
<path d="M240 550 c0 -12 41 -30 53 -23 4 2 7 10 6 16 0 9 -2 9 -5 1 -3 -7
-14 -10 -24 -7 -11 3 -17 9 -14 14 3 5 0 9 -5 9 -6 0 -11 -5 -11 -10z"/>
<path d="M295 499 c-9 -14 0 -22 18 -17 13 2 13 5 2 15 -10 9 -16 9 -20 2z"/>
<path d="M681 493 c-16 -17 -11 -25 8 -14 7 5 12 13 10 19 -2 6 -10 4 -18 -5z"/>
<path d="M762 490 c0 -14 2 -19 5 -12 2 6 2 18 0 25 -3 6 -5 1 -5 -13z"/>
<path d="M231 484 c0 -11 3 -14 6 -6 3 7 2 16 -1 19 -3 4 -6 -2 -5 -13z"/>
<path d="M357 485 c-4 -8 -2 -17 3 -20 6 -4 10 3 10 14 0 25 -6 27 -13 6z"/>
<path d="M630 479 c0 -11 4 -18 10 -14 5 3 7 12 3 20 -7 21 -13 19 -13 -6z"/>
<path d="M347 449 c7 -7 15 -10 18 -7 3 3 -2 9 -12 12 -14 6 -15 5 -6 -5z"/>
<path d="M640 450 c-9 -6 -10 -10 -3 -10 6 0 15 5 18 10 8 12 4 12 -15 0z"/>
<path d="M748 453 c-18 -4 -24 -24 -12 -36 12 -12 33 5 26 21 -5 15 -4 16 14
2 18 -14 18 -14 5 3 -7 9 -14 16 -15 16 0 -1 -9 -3 -18 -6z"/>
<path d="M361 404 c0 -11 3 -14 6 -6 3 7 2 16 -1 19 -3 4 -6 -2 -5 -13z"/>
<path d="M381 388 c-1 -9 -6 -18 -13 -20 -8 -3 -8 -9 0 -24 11 -18 11 -18 12
0 0 19 0 19 22 0 13 -11 17 -12 11 -3 -7 8 -17 26 -22 40 -6 16 -10 18 -10 7z"/>
<path d="M598 361 l-17 -36 21 25 21 25 -6 -30 c-5 -27 -4 -28 9 -10 16 22 18
35 5 35 -5 0 -11 6 -13 14 -2 7 -11 -3 -20 -23z"/>
<path d="M407 309 c7 -7 15 -10 18 -7 3 3 -2 9 -12 12 -14 6 -15 5 -6 -5z"/>
<path d="M580 310 c-9 -6 -10 -10 -3 -10 6 0 15 5 18 10 8 12 4 12 -15 0z"/>
<path d="M490 100 c0 -5 5 -10 10 -10 6 0 10 5 10 10 0 6 -4 10 -10 10 -5 0
-10 -4 -10 -10z"/>
</g>
</svg>
